<svg xmlns="http://www.w3.org/2000/svg" style="display:none">
  <!-- ===================== STRAVA ===================== -->
  <symbol id="icon-bike" viewBox="0 0 24 24">
    <circle cx="5.5" cy="17.5" r="3.5" fill="none" stroke="currentColor" stroke-width="1.6"/>
    <circle cx="18.5" cy="17.5" r="3.5" fill="none" stroke="currentColor" stroke-width="1.6"/>
    <path d="M5.5 17.5 L10 8 h4 M10 8 L14 17.5 M14 17.5 L18.5 17.5 M14 17.5 L10.5 11 M8 8 h4" fill="none" stroke="currentColor" stroke-width="1.6" stroke-linecap="round" stroke-linejoin="round"/>
  </symbol>

  <symbol id="icon-run" viewBox="0 0 24 24">
    <circle cx="14.5" cy="4.5" r="1.6" fill="currentColor"/>
    <path d="M9 21l2.2-4.8-2-1.6 1-4.4 3 2.4 3.4-1.4M9.6 12.4l3-1.2 2 2.6 3.4 1" fill="none" stroke="currentColor" stroke-width="1.6" stroke-linecap="round" stroke-linejoin="round"/>
  </symbol>

  <!-- ===================== PRINTER ===================== -->
  <symbol id="icon-printer" viewBox="0 0 24 24">
    <rect x="5" y="8" width="14" height="7" fill="none" stroke="currentColor" stroke-width="1.6"/>
    <path d="M7 8V4h10v4" fill="none" stroke="currentColor" stroke-width="1.6" stroke-linejoin="round"/>
    <path d="M7 15v5h10v-5" fill="none" stroke="currentColor" stroke-width="1.6" stroke-linejoin="round"/>
    <circle cx="16" cy="10.6" r="0.9" fill="currentColor"/>
  </symbol>

  <!-- ===================== VACUUM ===================== -->
  <symbol id="icon-vacuum" viewBox="0 0 24 24">
    <circle cx="12" cy="12" r="8" fill="none" stroke="currentColor" stroke-width="1.6"/>
    <circle cx="12" cy="12" r="2.6" fill="currentColor"/>
  </symbol>

  <!-- ===================== WEATHER ===================== -->
  <symbol id="icon-sun" viewBox="0 0 24 24">
    <circle cx="12" cy="12" r="4.5" fill="none" stroke="currentColor" stroke-width="1.6"/>
    <g stroke="currentColor" stroke-width="1.6" stroke-linecap="round">
      <line x1="12" y1="1.5" x2="12" y2="4"/>
      <line x1="12" y1="20" x2="12" y2="22.5"/>
      <line x1="1.5" y1="12" x2="4" y2="12"/>
      <line x1="20" y1="12" x2="22.5" y2="12"/>
      <line x1="4.4" y1="4.4" x2="6.1" y2="6.1"/>
      <line x1="17.9" y1="17.9" x2="19.6" y2="19.6"/>
      <line x1="4.4" y1="19.6" x2="6.1" y2="17.9"/>
      <line x1="17.9" y1="6.1" x2="19.6" y2="4.4"/>
    </g>
  </symbol>

  <symbol id="icon-moon" viewBox="0 0 24 24">
    <path d="M20 14.5A8.5 8.5 0 1 1 9.5 4a7 7 0 0 0 10.5 10.5z" fill="none" stroke="currentColor" stroke-width="1.6" stroke-linejoin="round"/>
  </symbol>

  <symbol id="icon-cloud" viewBox="0 0 24 24">
    <path d="M7 17.5a4.2 4.2 0 0 1-.6-8.36 5.4 5.4 0 0 1 10.5-1.7 4.4 4.4 0 0 1-1 10.06z" fill="none" stroke="currentColor" stroke-width="1.6" stroke-linejoin="round"/>
  </symbol>

  <symbol id="icon-cloud-sun" viewBox="0 0 24 24">
    <circle cx="8" cy="7.5" r="3" fill="none" stroke="currentColor" stroke-width="1.4"/>
    <path d="M7 18.5a4.2 4.2 0 0 1-.4-8.37 5.4 5.4 0 0 1 10.5-1.2 4.4 4.4 0 0 1-.6 9.57z" fill="none" stroke="currentColor" stroke-width="1.6" stroke-linejoin="round"/>
  </symbol>

  <symbol id="icon-rain" viewBox="0 0 24 24">
    <path d="M7 15a4.2 4.2 0 0 1-.6-8.36 5.4 5.4 0 0 1 10.5-1.7 4.4 4.4 0 0 1-1 10.06z" fill="none" stroke="currentColor" stroke-width="1.6" stroke-linejoin="round"/>
    <g stroke="currentColor" stroke-width="1.5" stroke-linecap="round">
      <line x1="8" y1="17.5" x2="7" y2="21"/>
      <line x1="12" y1="17.5" x2="11" y2="21"/>
      <line x1="16" y1="17.5" x2="15" y2="21"/>
    </g>
  </symbol>

  <symbol id="icon-wind" viewBox="0 0 24 24">
    <path d="M2.5 8h11a2.5 2.5 0 1 0-2.3-3.5M2.5 12.5h15a2.5 2.5 0 1 1-2.3 3.5M2.5 16.8h8.4" fill="none" stroke="currentColor" stroke-width="1.6" stroke-linecap="round"/>
  </symbol>

  <!-- ===================== MISC UI ===================== -->
  <symbol id="icon-envelope" viewBox="0 0 24 24">
    <rect x="3" y="6" width="18" height="13" fill="none" stroke="currentColor" stroke-width="1.6" stroke-linejoin="round"/>
    <path d="M3.5 6.5 12 13l8.5-6.5" fill="none" stroke="currentColor" stroke-width="1.6" stroke-linejoin="round"/>
  </symbol>

  <symbol id="icon-play" viewBox="0 0 24 24">
    <path d="M6 4.5v15l14-7.5z" fill="currentColor"/>
  </symbol>

  <symbol id="icon-pause" viewBox="0 0 24 24">
    <rect x="5.5" y="4.5" width="4.4" height="15" fill="currentColor"/>
    <rect x="14.1" y="4.5" width="4.4" height="15" fill="currentColor"/>
  </symbol>

  <symbol id="icon-prev" viewBox="0 0 24 24">
    <path d="M18 4.5v15L6.5 12z" fill="currentColor"/>
    <rect x="4" y="4.5" width="2" height="15" fill="currentColor"/>
  </symbol>

  <symbol id="icon-next" viewBox="0 0 24 24">
    <path d="M6 4.5v15L17.5 12z" fill="currentColor"/>
    <rect x="18" y="4.5" width="2" height="15" fill="currentColor"/>
  </symbol>

  <symbol id="icon-battery" viewBox="0 0 24 24">
    <rect x="2" y="8" width="17" height="8" fill="none" stroke="currentColor" stroke-width="1.6"/>
    <rect x="19.5" y="10.4" width="2" height="3.2" fill="currentColor"/>
  </symbol>

  <symbol id="icon-wifi" viewBox="0 0 24 24">
    <path d="M4 9.5a13 13 0 0 1 16 0M7 13a8.4 8.4 0 0 1 10 0M10.2 16.4a3.8 3.8 0 0 1 3.6 0" fill="none" stroke="currentColor" stroke-width="1.6" stroke-linecap="round"/>
    <circle cx="12" cy="19.4" r="1.1" fill="currentColor"/>
  </symbol>

  <symbol id="icon-gear" viewBox="0 0 24 24">
    <circle cx="12" cy="12" r="3.1" fill="none" stroke="currentColor" stroke-width="1.6"/>
    <path d="M12 2.8v2.6M12 18.6v2.6M21.2 12h-2.6M5.4 12H2.8M18.1 5.9l-1.8 1.8M7.7 16.3l-1.8 1.8M18.1 18.1l-1.8-1.8M7.7 7.7 5.9 5.9" fill="none" stroke="currentColor" stroke-width="1.6" stroke-linecap="round"/>
  </symbol>

  <symbol id="icon-refresh" viewBox="0 0 24 24">
    <path d="M20 12a8 8 0 1 1-2.6-5.9M20 4v4.5h-4.5" fill="none" stroke="currentColor" stroke-width="1.6" stroke-linecap="round" stroke-linejoin="round"/>
  </symbol>

  <symbol id="icon-fullscreen" viewBox="0 0 24 24">
    <path d="M4 9V4h5M15 4h5v5M20 15v5h-5M9 20H4v-5" fill="none" stroke="currentColor" stroke-width="1.6" stroke-linecap="round" stroke-linejoin="round"/>
  </symbol>

  <symbol id="icon-camera" viewBox="0 0 24 24">
    <path d="M4 8h3l1.6-2h6.8L17 8h3v11H4z" fill="none" stroke="currentColor" stroke-width="1.6" stroke-linejoin="round"/>
    <circle cx="12" cy="13.5" r="3.2" fill="none" stroke="currentColor" stroke-width="1.6"/>
  </symbol>
</svg>
